<svg width="60" height="60" viewBox="0 0 60 60" fill="none" xmlns="http://www.w3.org/2000/svg">
<g clip-path="url(#clip0_105_37)">
<rect width="60" height="60" rx="16" fill="#5D36F6"/>
<g filter="url(#filter0_f_105_37)">
<path d="M30 47L66.3731 62H-6.37307L30 47Z" fill="white"/>
</g>
<path d="M46.25 17.5H35C34.0297 17.5 33.0728 17.7259 32.2049 18.1598C31.3371 18.5938 30.5822 19.2238 30 20C29.4178 19.2238 28.6629 18.5938 27.7951 18.1598C26.9272 17.7259 25.9703 17.5 25 17.5H13.75C13.4185 17.5 13.1005 17.6317 12.8661 17.8661C12.6317 18.1005 12.5 18.4185 12.5 18.75V41.25C12.5 41.5815 12.6317 41.8995 12.8661 42.1339C13.1005 42.3683 13.4185 42.5 13.75 42.5H25C25.9946 42.5 26.9484 42.8951 27.6517 43.5983C28.3549 44.3016 28.75 45.2554 28.75 46.25C28.75 46.5815 28.8817 46.8995 29.1161 47.1339C29.3505 47.3683 29.6685 47.5 30 47.5C30.3315 47.5 30.6495 47.3683 30.8839 47.1339C31.1183 46.8995 31.25 46.5815 31.25 46.25C31.25 45.2554 31.6451 44.3016 32.3483 43.5983C33.0516 42.8951 34.0054 42.5 35 42.5H46.25C46.5815 42.5 46.8995 42.3683 47.1339 42.1339C47.3683 41.8995 47.5 41.5815 47.5 41.25V18.75C47.5 18.4185 47.3683 18.1005 47.1339 17.8661C46.8995 17.6317 46.5815 17.5 46.25 17.5ZM25 40H15V20H25C25.9946 20 26.9484 20.3951 27.6517 21.0983C28.3549 21.8016 28.75 22.7554 28.75 23.75V41.25C27.6692 40.4367 26.3527 39.9978 25 40ZM45 40H35C33.6473 39.9978 32.3308 40.4367 31.25 41.25V23.75C31.25 22.7554 31.6451 21.8016 32.3483 21.0983C33.0516 20.3951 34.0054 20 35 20H45V40Z" fill="white"/>
</g>
<defs>
<filter id="filter0_f_105_37" x="-31.373" y="22" width="122.746" height="65" filterUnits="userSpaceOnUse" color-interpolation-filters="sRGB">
<feFlood flood-opacity="0" result="BackgroundImageFix"/>
<feBlend mode="normal" in="SourceGraphic" in2="BackgroundImageFix" result="shape"/>
<feGaussianBlur stdDeviation="12.5" result="effect1_foregroundBlur_105_37"/>
</filter>
<clipPath id="clip0_105_37">
<rect width="60" height="60" rx="16" fill="white"/>
</clipPath>
</defs>
</svg>
