<svg width="60" height="60" viewBox="0 0 60 60" fill="none" xmlns="http://www.w3.org/2000/svg">
<g clip-path="url(#clip0_105_66)">
<rect width="60" height="60" rx="16" fill="#5D36F6"/>
<g filter="url(#filter0_f_105_66)">
<path d="M30 47L66.3731 62H-6.37307L30 47Z" fill="white"/>
</g>
<path d="M47.4997 18.75V28.75C47.4997 29.0815 47.368 29.3995 47.1336 29.6339C46.8992 29.8683 46.5812 30 46.2497 30C45.9182 30 45.6003 29.8683 45.3658 29.6339C45.1314 29.3995 44.9997 29.0815 44.9997 28.75V21.7672L32.1341 34.6344C32.018 34.7506 31.8801 34.8428 31.7284 34.9057C31.5766 34.9686 31.414 35.001 31.2497 35.001C31.0854 35.001 30.9228 34.9686 30.771 34.9057C30.6193 34.8428 30.4814 34.7506 30.3653 34.6344L24.9997 29.2672L14.6341 39.6344C14.3995 39.8689 14.0814 40.0007 13.7497 40.0007C13.418 40.0007 13.0999 39.8689 12.8653 39.6344C12.6308 39.3998 12.499 39.0817 12.499 38.75C12.499 38.4183 12.6308 38.1002 12.8653 37.8656L24.1153 26.6156C24.2314 26.4994 24.3693 26.4072 24.521 26.3443C24.6728 26.2814 24.8354 26.249 24.9997 26.249C25.164 26.249 25.3266 26.2814 25.4784 26.3443C25.6301 26.4072 25.768 26.4994 25.8841 26.6156L31.2497 31.9828L43.2325 20H36.2497C35.9182 20 35.6003 19.8683 35.3658 19.6339C35.1314 19.3995 34.9997 19.0815 34.9997 18.75C34.9997 18.4185 35.1314 18.1005 35.3658 17.8661C35.6003 17.6317 35.9182 17.5 36.2497 17.5H46.2497C46.5812 17.5 46.8992 17.6317 47.1336 17.8661C47.368 18.1005 47.4997 18.4185 47.4997 18.75Z" fill="white"/>
</g>
<defs>
<filter id="filter0_f_105_66" x="-31.373" y="22" width="122.746" height="65" filterUnits="userSpaceOnUse" color-interpolation-filters="sRGB">
<feFlood flood-opacity="0" result="BackgroundImageFix"/>
<feBlend mode="normal" in="SourceGraphic" in2="BackgroundImageFix" result="shape"/>
<feGaussianBlur stdDeviation="12.5" result="effect1_foregroundBlur_105_66"/>
</filter>
<clipPath id="clip0_105_66">
<rect width="60" height="60" rx="16" fill="white"/>
</clipPath>
</defs>
</svg>
