<svg width="60" height="60" viewBox="0 0 60 60" fill="none" xmlns="http://www.w3.org/2000/svg">
<g clip-path="url(#clip0_105_84)">
<rect width="60" height="60" rx="16" fill="#5D36F6"/>
<g filter="url(#filter0_f_105_84)">
<path d="M30 47L66.3731 62H-6.37307L30 47Z" fill="white"/>
</g>
<path d="M30 13.75C26.7861 13.75 23.6443 14.703 20.972 16.4886C18.2997 18.2742 16.2169 20.8121 14.987 23.7814C13.757 26.7507 13.4352 30.018 14.0622 33.1702C14.6893 36.3224 16.2369 39.2179 18.5095 41.4905C20.7821 43.7631 23.6776 45.3108 26.8298 45.9378C29.982 46.5648 33.2493 46.243 36.2186 45.013C39.1879 43.7831 41.7258 41.7003 43.5114 39.028C45.297 36.3557 46.25 33.2139 46.25 30C46.2455 25.6916 44.5319 21.561 41.4855 18.5145C38.439 15.4681 34.3084 13.7545 30 13.75ZM30 43.75C27.2805 43.75 24.6221 42.9436 22.3609 41.4327C20.0997 39.9218 18.3374 37.7744 17.2967 35.2619C16.256 32.7494 15.9837 29.9847 16.5142 27.3175C17.0448 24.6503 18.3543 22.2003 20.2773 20.2773C22.2003 18.3543 24.6503 17.0447 27.3175 16.5142C29.9848 15.9837 32.7494 16.256 35.2619 17.2967C37.7744 18.3374 39.9218 20.0997 41.4327 22.3609C42.9436 24.6221 43.75 27.2805 43.75 30C43.7459 33.6455 42.2959 37.1404 39.7182 39.7182C37.1404 42.2959 33.6455 43.7459 30 43.75ZM40 30C40 30.3315 39.8683 30.6495 39.6339 30.8839C39.3995 31.1183 39.0815 31.25 38.75 31.25H30C29.6685 31.25 29.3505 31.1183 29.1161 30.8839C28.8817 30.6495 28.75 30.3315 28.75 30V21.25C28.75 20.9185 28.8817 20.6005 29.1161 20.3661C29.3505 20.1317 29.6685 20 30 20C30.3315 20 30.6495 20.1317 30.8839 20.3661C31.1183 20.6005 31.25 20.9185 31.25 21.25V28.75H38.75C39.0815 28.75 39.3995 28.8817 39.6339 29.1161C39.8683 29.3505 40 29.6685 40 30Z" fill="white"/>
</g>
<defs>
<filter id="filter0_f_105_84" x="-31.373" y="22" width="122.746" height="65" filterUnits="userSpaceOnUse" color-interpolation-filters="sRGB">
<feFlood flood-opacity="0" result="BackgroundImageFix"/>
<feBlend mode="normal" in="SourceGraphic" in2="BackgroundImageFix" result="shape"/>
<feGaussianBlur stdDeviation="12.5" result="effect1_foregroundBlur_105_84"/>
</filter>
<clipPath id="clip0_105_84">
<rect width="60" height="60" rx="16" fill="white"/>
</clipPath>
</defs>
</svg>
