<svg width="281" height="44" viewBox="0 0 281 44" fill="none" xmlns="http://www.w3.org/2000/svg">
<path d="M31.625 15.3948V14.4375C31.625 10.1269 25.123 6.875 16.5 6.875C7.87703 6.875 1.375 10.1269 1.375 14.4375V21.3125C1.375 24.903 5.88672 27.7561 12.375 28.6103V29.5625C12.375 33.8731 18.877 37.125 27.5 37.125C36.123 37.125 42.625 33.8731 42.625 29.5625V22.6875C42.625 19.1297 38.2559 16.2731 31.625 15.3948ZM39.875 22.6875C39.875 24.9597 34.583 27.5 27.5 27.5C26.8589 27.5 26.223 27.4777 25.5956 27.4364C29.303 26.0855 31.625 23.8906 31.625 21.3125V18.1741C36.7589 18.9389 39.875 21.0152 39.875 22.6875ZM12.375 25.8242V21.7353C13.7427 21.9135 15.1207 22.0019 16.5 22C17.8793 22.0019 19.2573 21.9135 20.625 21.7353V25.8242C19.2593 26.026 17.8805 26.1265 16.5 26.125C15.1195 26.1265 13.7407 26.026 12.375 25.8242ZM28.875 18.8942V21.3125C28.875 22.7545 26.742 24.3031 23.375 25.2433V21.2266C25.5939 20.6886 27.4725 19.8877 28.875 18.8942ZM16.5 9.625C23.583 9.625 28.875 12.1653 28.875 14.4375C28.875 16.7097 23.583 19.25 16.5 19.25C9.41703 19.25 4.125 16.7097 4.125 14.4375C4.125 12.1653 9.41703 9.625 16.5 9.625ZM4.125 21.3125V18.8942C5.5275 19.8877 7.40609 20.6886 9.625 21.2266V25.2433C6.25797 24.3031 4.125 22.7545 4.125 21.3125ZM15.125 29.5625V28.8458C15.577 28.863 16.0342 28.875 16.5 28.875C17.1669 28.875 17.8183 28.8527 18.4577 28.8148C19.1679 29.0691 19.8914 29.2848 20.625 29.4611V33.4933C17.258 32.5531 15.125 31.0045 15.125 29.5625ZM23.375 34.0742V29.975C24.7423 30.1588 26.1204 30.2507 27.5 30.25C28.8793 30.2519 30.2573 30.1635 31.625 29.9853V34.0742C28.8896 34.4753 26.1104 34.4753 23.375 34.0742ZM34.375 33.4933V29.4766C36.5939 28.9386 38.4725 28.1377 39.875 27.1442V29.5625C39.875 31.0045 37.742 32.5531 34.375 33.4933Z" fill="white"/>
<path d="M59.27 32.42C57.65 32.42 56.22 32.13 54.98 31.55C53.74 30.97 52.77 30.14 52.07 29.06C51.37 27.98 51.02 26.68 51.02 25.16V24.32H54.92V25.16C54.92 26.42 55.31 27.37 56.09 28.01C56.87 28.63 57.93 28.94 59.27 28.94C60.63 28.94 61.64 28.67 62.3 28.13C62.98 27.59 63.32 26.9 63.32 26.06C63.32 25.48 63.15 25.01 62.81 24.65C62.49 24.29 62.01 24 61.37 23.78C60.75 23.54 59.99 23.32 59.09 23.12L58.4 22.97C56.96 22.65 55.72 22.25 54.68 21.77C53.66 21.27 52.87 20.62 52.31 19.82C51.77 19.02 51.5 17.98 51.5 16.7C51.5 15.42 51.8 14.33 52.4 13.43C53.02 12.51 53.88 11.81 54.98 11.33C56.1 10.83 57.41 10.58 58.91 10.58C60.41 10.58 61.74 10.84 62.9 11.36C64.08 11.86 65 12.62 65.66 13.64C66.34 14.64 66.68 15.9 66.68 17.42V18.32H62.78V17.42C62.78 16.62 62.62 15.98 62.3 15.5C62 15 61.56 14.64 60.98 14.42C60.4 14.18 59.71 14.06 58.91 14.06C57.71 14.06 56.82 14.29 56.24 14.75C55.68 15.19 55.4 15.8 55.4 16.58C55.4 17.1 55.53 17.54 55.79 17.9C56.07 18.26 56.48 18.56 57.02 18.8C57.56 19.04 58.25 19.25 59.09 19.43L59.78 19.58C61.28 19.9 62.58 20.31 63.68 20.81C64.8 21.31 65.67 21.97 66.29 22.79C66.91 23.61 67.22 24.66 67.22 25.94C67.22 27.22 66.89 28.35 66.23 29.33C65.59 30.29 64.67 31.05 63.47 31.61C62.29 32.15 60.89 32.42 59.27 32.42ZM73.7134 32.42C72.6534 32.42 71.7034 32.24 70.8634 31.88C70.0234 31.5 69.3534 30.96 68.8534 30.26C68.3734 29.54 68.1334 28.67 68.1334 27.65C68.1334 26.63 68.3734 25.78 68.8534 25.1C69.3534 24.4 70.0334 23.88 70.8934 23.54C71.7734 23.18 72.7734 23 73.8934 23H77.9734V22.16C77.9734 21.46 77.7534 20.89 77.3134 20.45C76.8734 19.99 76.1734 19.76 75.2134 19.76C74.2734 19.76 73.5734 19.98 73.1134 20.42C72.6534 20.84 72.3534 21.39 72.2134 22.07L68.7334 20.9C68.9734 20.14 69.3534 19.45 69.8734 18.83C70.4134 18.19 71.1234 17.68 72.0034 17.3C72.9034 16.9 73.9934 16.7 75.2734 16.7C77.2334 16.7 78.7834 17.19 79.9234 18.17C81.0634 19.15 81.6334 20.57 81.6334 22.43V27.98C81.6334 28.58 81.9134 28.88 82.4734 28.88H83.6734V32H81.1534C80.4134 32 79.8034 31.82 79.3234 31.46C78.8434 31.1 78.6034 30.62 78.6034 30.02V29.99H78.0334C77.9534 30.23 77.7734 30.55 77.4934 30.95C77.2134 31.33 76.7734 31.67 76.1734 31.97C75.5734 32.27 74.7534 32.42 73.7134 32.42ZM74.3734 29.36C75.4334 29.36 76.2934 29.07 76.9534 28.49C77.6334 27.89 77.9734 27.1 77.9734 26.12V25.82H74.1634C73.4634 25.82 72.9134 25.97 72.5134 26.27C72.1134 26.57 71.9134 26.99 71.9134 27.53C71.9134 28.07 72.1234 28.51 72.5434 28.85C72.9634 29.19 73.5734 29.36 74.3734 29.36ZM85.2371 32V17.12H88.9571V18.74H89.4971C89.7571 18.24 90.1871 17.81 90.7871 17.45C91.3871 17.07 92.1771 16.88 93.1571 16.88C94.2171 16.88 95.0671 17.09 95.7071 17.51C96.3471 17.91 96.8371 18.44 97.1771 19.1H97.7171C98.0571 18.46 98.5371 17.93 99.1571 17.51C99.7771 17.09 100.657 16.88 101.797 16.88C102.717 16.88 103.547 17.08 104.287 17.48C105.047 17.86 105.647 18.45 106.087 19.25C106.547 20.03 106.777 21.02 106.777 22.22V32H102.997V22.49C102.997 21.67 102.787 21.06 102.367 20.66C101.947 20.24 101.357 20.03 100.597 20.03C99.7371 20.03 99.0671 20.31 98.5871 20.87C98.1271 21.41 97.8971 22.19 97.8971 23.21V32H94.1171V22.49C94.1171 21.67 93.9071 21.06 93.4871 20.66C93.0671 20.24 92.4771 20.03 91.7171 20.03C90.8571 20.03 90.1871 20.31 89.7071 20.87C89.2471 21.41 89.0171 22.19 89.0171 23.21V32H85.2371ZM109.643 32V17.12H113.363V18.74H113.903C114.163 18.24 114.593 17.81 115.193 17.45C115.793 17.07 116.583 16.88 117.563 16.88C118.623 16.88 119.473 17.09 120.113 17.51C120.753 17.91 121.243 18.44 121.583 19.1H122.123C122.463 18.46 122.943 17.93 123.563 17.51C124.183 17.09 125.063 16.88 126.203 16.88C127.123 16.88 127.953 17.08 128.693 17.48C129.453 17.86 130.053 18.45 130.493 19.25C130.953 20.03 131.183 21.02 131.183 22.22V32H127.403V22.49C127.403 21.67 127.193 21.06 126.773 20.66C126.353 20.24 125.763 20.03 125.003 20.03C124.143 20.03 123.473 20.31 122.993 20.87C122.533 21.41 122.303 22.19 122.303 23.21V32H118.523V22.49C118.523 21.67 118.313 21.06 117.893 20.66C117.473 20.24 116.883 20.03 116.123 20.03C115.263 20.03 114.593 20.31 114.113 20.87C113.653 21.41 113.423 22.19 113.423 23.21V32H109.643ZM135.434 38V34.7H143.534C144.094 34.7 144.374 34.4 144.374 33.8V30.05H143.834C143.674 30.39 143.424 30.73 143.084 31.07C142.744 31.41 142.284 31.69 141.704 31.91C141.124 32.13 140.384 32.24 139.484 32.24C138.324 32.24 137.304 31.98 136.424 31.46C135.564 30.92 134.894 30.18 134.414 29.24C133.934 28.3 133.694 27.22 133.694 26V17.12H137.474V25.7C137.474 26.82 137.744 27.66 138.284 28.22C138.844 28.78 139.634 29.06 140.654 29.06C141.814 29.06 142.714 28.68 143.354 27.92C143.994 27.14 144.314 26.06 144.314 24.68V17.12H148.094V34.64C148.094 35.66 147.794 36.47 147.194 37.07C146.594 37.69 145.794 38 144.794 38H135.434ZM165.377 32.42C162.777 32.42 160.717 31.7 159.197 30.26C157.677 28.8 156.917 26.72 156.917 24.02V18.98C156.917 16.28 157.677 14.21 159.197 12.77C160.717 11.31 162.777 10.58 165.377 10.58C167.957 10.58 169.947 11.29 171.347 12.71C172.767 14.11 173.477 16.04 173.477 18.5V18.68H169.577V18.38C169.577 17.14 169.227 16.12 168.527 15.32C167.847 14.52 166.797 14.12 165.377 14.12C163.977 14.12 162.877 14.55 162.077 15.41C161.277 16.27 160.877 17.44 160.877 18.92V24.08C160.877 25.54 161.277 26.71 162.077 27.59C162.877 28.45 163.977 28.88 165.377 28.88C166.797 28.88 167.847 28.48 168.527 27.68C169.227 26.86 169.577 25.84 169.577 24.62V24.08H173.477V24.5C173.477 26.96 172.767 28.9 171.347 30.32C169.947 31.72 167.957 32.42 165.377 32.42ZM180.244 32.42C179.184 32.42 178.234 32.24 177.394 31.88C176.554 31.5 175.884 30.96 175.384 30.26C174.904 29.54 174.664 28.67 174.664 27.65C174.664 26.63 174.904 25.78 175.384 25.1C175.884 24.4 176.564 23.88 177.424 23.54C178.304 23.18 179.304 23 180.424 23H184.504V22.16C184.504 21.46 184.284 20.89 183.844 20.45C183.404 19.99 182.704 19.76 181.744 19.76C180.804 19.76 180.104 19.98 179.644 20.42C179.184 20.84 178.884 21.39 178.744 22.07L175.264 20.9C175.504 20.14 175.884 19.45 176.404 18.83C176.944 18.19 177.654 17.68 178.534 17.3C179.434 16.9 180.524 16.7 181.804 16.7C183.764 16.7 185.314 17.19 186.454 18.17C187.594 19.15 188.164 20.57 188.164 22.43V27.98C188.164 28.58 188.444 28.88 189.004 28.88H190.204V32H187.684C186.944 32 186.334 31.82 185.854 31.46C185.374 31.1 185.134 30.62 185.134 30.02V29.99H184.564C184.484 30.23 184.304 30.55 184.024 30.95C183.744 31.33 183.304 31.67 182.704 31.97C182.104 32.27 181.284 32.42 180.244 32.42ZM180.904 29.36C181.964 29.36 182.824 29.07 183.484 28.49C184.164 27.89 184.504 27.1 184.504 26.12V25.82H180.694C179.994 25.82 179.444 25.97 179.044 26.27C178.644 26.57 178.444 26.99 178.444 27.53C178.444 28.07 178.654 28.51 179.074 28.85C179.494 29.19 180.104 29.36 180.904 29.36ZM197.83 32.42C195.89 32.42 194.3 32 193.06 31.16C191.82 30.32 191.07 29.12 190.81 27.56L194.29 26.66C194.43 27.36 194.66 27.91 194.98 28.31C195.32 28.71 195.73 29 196.21 29.18C196.71 29.34 197.25 29.42 197.83 29.42C198.71 29.42 199.36 29.27 199.78 28.97C200.2 28.65 200.41 28.26 200.41 27.8C200.41 27.34 200.21 26.99 199.81 26.75C199.41 26.49 198.77 26.28 197.89 26.12L197.05 25.97C196.01 25.77 195.06 25.5 194.2 25.16C193.34 24.8 192.65 24.31 192.13 23.69C191.61 23.07 191.35 22.27 191.35 21.29C191.35 19.81 191.89 18.68 192.97 17.9C194.05 17.1 195.47 16.7 197.23 16.7C198.89 16.7 200.27 17.07 201.37 17.81C202.47 18.55 203.19 19.52 203.53 20.72L200.02 21.8C199.86 21.04 199.53 20.5 199.03 20.18C198.55 19.86 197.95 19.7 197.23 19.7C196.51 19.7 195.96 19.83 195.58 20.09C195.2 20.33 195.01 20.67 195.01 21.11C195.01 21.59 195.21 21.95 195.61 22.19C196.01 22.41 196.55 22.58 197.23 22.7L198.07 22.85C199.19 23.05 200.2 23.32 201.1 23.66C202.02 23.98 202.74 24.45 203.26 25.07C203.8 25.67 204.07 26.49 204.07 27.53C204.07 29.09 203.5 30.3 202.36 31.16C201.24 32 199.73 32.42 197.83 32.42ZM206.183 32V11H209.963V18.95H210.503C210.663 18.63 210.913 18.31 211.253 17.99C211.593 17.67 212.043 17.41 212.603 17.21C213.183 16.99 213.913 16.88 214.793 16.88C215.953 16.88 216.963 17.15 217.823 17.69C218.703 18.21 219.383 18.94 219.863 19.88C220.343 20.8 220.583 21.88 220.583 23.12V32H216.803V23.42C216.803 22.3 216.523 21.46 215.963 20.9C215.423 20.34 214.643 20.06 213.623 20.06C212.463 20.06 211.563 20.45 210.923 21.23C210.283 21.99 209.963 23.06 209.963 24.44V32H206.183ZM225.519 32V20.24H221.739V17.12H225.519V14.36C225.519 13.34 225.819 12.53 226.419 11.93C227.039 11.31 227.839 11 228.819 11H232.719V14.12H230.139C229.579 14.12 229.299 14.42 229.299 15.02V17.12H233.199V20.24H229.299V32H225.519ZM235.299 32V11H239.079V32H235.299ZM249.154 32.42C247.674 32.42 246.344 32.12 245.164 31.52C243.984 30.92 243.054 30.05 242.374 28.91C241.694 27.77 241.354 26.4 241.354 24.8V24.32C241.354 22.72 241.694 21.35 242.374 20.21C243.054 19.07 243.984 18.2 245.164 17.6C246.344 17 247.674 16.7 249.154 16.7C250.634 16.7 251.964 17 253.144 17.6C254.324 18.2 255.254 19.07 255.934 20.21C256.614 21.35 256.954 22.72 256.954 24.32V24.8C256.954 26.4 256.614 27.77 255.934 28.91C255.254 30.05 254.324 30.92 253.144 31.52C251.964 32.12 250.634 32.42 249.154 32.42ZM249.154 29.06C250.314 29.06 251.274 28.69 252.034 27.95C252.794 27.19 253.174 26.11 253.174 24.71V24.41C253.174 23.01 252.794 21.94 252.034 21.2C251.294 20.44 250.334 20.06 249.154 20.06C247.994 20.06 247.034 20.44 246.274 21.2C245.514 21.94 245.134 23.01 245.134 24.41V24.71C245.134 26.11 245.514 27.19 246.274 27.95C247.034 28.69 247.994 29.06 249.154 29.06ZM260.384 32L258.284 17.12H262.034L263.354 29.45H263.894L265.814 17.12H271.874L273.794 29.45H274.334L275.654 17.12H279.404L277.304 32H271.034L269.114 19.67H268.574L266.654 32H260.384Z" fill="white"/>
</svg>
