<svg width="60" height="60" viewBox="0 0 60 60" fill="none" xmlns="http://www.w3.org/2000/svg">
<g clip-path="url(#clip0_105_54)">
<rect width="60" height="60" rx="16" fill="#5D36F6"/>
<g filter="url(#filter0_f_105_54)">
<path d="M30 47L66.3731 62H-6.37307L30 47Z" fill="white"/>
</g>
<path d="M43.75 24.9999C43.7514 22.6827 43.1671 20.4027 42.0515 18.3718C40.9359 16.3408 39.3251 14.6247 37.3688 13.3829C35.4125 12.1411 33.174 11.4139 30.8614 11.2687C28.5488 11.1235 26.2369 11.5652 24.1407 12.5526C22.0444 13.54 20.2317 15.0412 18.8709 16.9167C17.5101 18.7922 16.6453 20.9812 16.3569 23.2804C16.0685 25.5796 16.3659 27.9143 17.2213 30.0678C18.0767 32.2213 19.4626 34.1237 21.25 35.5983V47.4999C21.2498 47.713 21.3042 47.9227 21.4079 48.109C21.5117 48.2952 21.6613 48.4518 21.8426 48.5639C22.0239 48.6761 22.2309 48.7399 22.4439 48.7495C22.6569 48.7591 22.8687 48.714 23.0594 48.6186L30 45.1561L36.9422 48.6264C37.1162 48.7097 37.3071 48.7519 37.5 48.7499C37.8315 48.7499 38.1495 48.6182 38.3839 48.3837C38.6183 48.1493 38.75 47.8314 38.75 47.4999V35.5983C40.314 34.3102 41.5734 32.6919 42.4378 30.8595C43.3023 29.027 43.7504 27.026 43.75 24.9999ZM18.75 24.9999C18.75 22.7748 19.4098 20.5998 20.646 18.7497C21.8821 16.8996 23.6391 15.4577 25.6948 14.6062C27.7505 13.7547 30.0125 13.5319 32.1948 13.966C34.3771 14.4001 36.3816 15.4716 37.955 17.0449C39.5283 18.6183 40.5998 20.6228 41.0338 22.8051C41.4679 24.9874 41.2451 27.2494 40.3936 29.3051C39.5422 31.3607 38.1002 33.1177 36.2502 34.3539C34.4001 35.5901 32.225 36.2499 30 36.2499C27.0173 36.2466 24.1578 35.0602 22.0487 32.9512C19.9396 30.8421 18.7533 27.9825 18.75 24.9999ZM36.25 45.478L30.5578 42.6327C30.3842 42.5458 30.1926 42.5005 29.9984 42.5005C29.8042 42.5005 29.6127 42.5458 29.4391 42.6327L23.75 45.478V37.2452C25.6849 38.2342 27.827 38.7498 30 38.7498C32.173 38.7498 34.3151 38.2342 36.25 37.2452V45.478ZM30 33.7499C31.7306 33.7499 33.4223 33.2367 34.8612 32.2752C36.3002 31.3138 37.4217 29.9472 38.0839 28.3483C38.7462 26.7495 38.9195 24.9902 38.5819 23.2928C38.2443 21.5955 37.4109 20.0364 36.1872 18.8127C34.9635 17.589 33.4044 16.7556 31.707 16.418C30.0097 16.0804 28.2504 16.2537 26.6515 16.9159C25.0527 17.5782 23.6861 18.6997 22.7246 20.1386C21.7632 21.5776 21.25 23.2693 21.25 24.9999C21.2525 27.3197 22.1752 29.5439 23.8156 31.1843C25.456 32.8247 27.6801 33.7474 30 33.7499ZM30 18.7499C31.2361 18.7499 32.4445 19.1164 33.4723 19.8032C34.5001 20.4899 35.3012 21.4661 35.7742 22.6081C36.2473 23.7501 36.3711 25.0068 36.1299 26.2192C35.8888 27.4316 35.2935 28.5452 34.4194 29.4193C33.5453 30.2934 32.4317 30.8886 31.2193 31.1298C30.0069 31.3709 28.7503 31.2472 27.6082 30.7741C26.4662 30.3011 25.4901 29.5 24.8033 28.4722C24.1166 27.4444 23.75 26.236 23.75 24.9999C23.75 23.3423 24.4085 21.7525 25.5806 20.5804C26.7527 19.4083 28.3424 18.7499 30 18.7499Z" fill="white"/>
</g>
<defs>
<filter id="filter0_f_105_54" x="-31.373" y="22" width="122.746" height="65" filterUnits="userSpaceOnUse" color-interpolation-filters="sRGB">
<feFlood flood-opacity="0" result="BackgroundImageFix"/>
<feBlend mode="normal" in="SourceGraphic" in2="BackgroundImageFix" result="shape"/>
<feGaussianBlur stdDeviation="12.5" result="effect1_foregroundBlur_105_54"/>
</filter>
<clipPath id="clip0_105_54">
<rect width="60" height="60" rx="16" fill="white"/>
</clipPath>
</defs>
</svg>
