<svg width="28" height="28" viewBox="0 0 28 28" fill="none" xmlns="http://www.w3.org/2000/svg">
<path d="M24.863 3.13717C24.643 2.91725 24.3683 2.75997 24.0672 2.68153C23.7661 2.60309 23.4496 2.60633 23.1502 2.69092H23.1338L2.14038 9.06092C1.79956 9.15914 1.49664 9.3586 1.27174 9.63288C1.04685 9.90716 0.910612 10.2433 0.881078 10.5968C0.851545 10.9502 0.930111 11.3043 1.10637 11.6121C1.28262 11.9199 1.54824 12.1669 1.86804 12.3203L11.1562 16.844L15.6733 26.1267C15.8138 26.4265 16.0372 26.6799 16.3171 26.8568C16.5969 27.0338 16.9216 27.1269 17.2527 27.1253C17.303 27.1253 17.3533 27.1231 17.4037 27.1187C17.7568 27.0901 18.0928 26.9542 18.3665 26.7292C18.6402 26.5042 18.8386 26.2008 18.9349 25.8598L25.3005 4.86638C25.3005 4.86092 25.3005 4.85545 25.3005 4.84998C25.3862 4.55134 25.3908 4.23528 25.314 3.93427C25.2371 3.63325 25.0814 3.35813 24.863 3.13717ZM17.2626 25.3589L17.2571 25.3742V25.3665L12.8755 16.365L18.1255 11.115C18.2827 10.9495 18.369 10.7293 18.3661 10.5011C18.3632 10.2729 18.2712 10.0549 18.1099 9.89358C17.9485 9.73223 17.7305 9.6403 17.5024 9.63737C17.2742 9.63445 17.0539 9.72078 16.8885 9.87795L11.6385 15.1279L2.63366 10.7464H2.626H2.64132L23.6249 4.37529L17.2626 25.3589Z" fill="white"/>
</svg>
