<svg width="48" height="48" viewBox="0 0 48 48" fill="none" xmlns="http://www.w3.org/2000/svg">
<path d="M42.9152 4.91028C42.6828 4.7096 42.4001 4.57613 42.0974 4.52425C41.7948 4.47238 41.4837 4.50407 41.1977 4.61591L3.19898 19.4865C2.66045 19.6959 2.20452 20.0746 1.89984 20.5656C1.59515 21.0565 1.4582 21.6332 1.5096 22.2087C1.56099 22.7842 1.79796 23.3275 2.18482 23.7566C2.57168 24.1858 3.08749 24.4777 3.6546 24.5884L13.5002 26.5215V37.4997C13.4983 38.0976 13.676 38.6824 14.0103 39.1782C14.3446 39.674 14.8201 40.0579 15.3752 40.2803C15.9295 40.5066 16.539 40.5609 17.1245 40.4362C17.71 40.3115 18.2445 40.0135 18.6584 39.5809L23.4059 34.6572L30.9377 41.2497C31.4811 41.7317 32.182 41.9984 32.9084 41.9997C33.2267 41.9994 33.543 41.9494 33.8459 41.8515C34.3408 41.6945 34.7859 41.4105 35.1369 41.0279C35.4879 40.6454 35.7326 40.1775 35.8465 39.6709L43.4571 6.56216C43.5252 6.26356 43.5107 5.95207 43.4153 5.66107C43.3198 5.37007 43.1469 5.11053 42.9152 4.91028ZM31.4515 11.6603L14.6534 23.6903L5.35335 21.8659L31.4515 11.6603ZM16.5002 37.4997V28.5972L21.1484 32.6734L16.5002 37.4997ZM32.9121 38.9997L17.4096 25.4059L39.7221 9.41403L32.9121 38.9997Z" fill="white"/>
</svg>
