<svg width="60" height="60" viewBox="0 0 60 60" fill="none" xmlns="http://www.w3.org/2000/svg">
<g clip-path="url(#clip0_105_45)">
<rect width="60" height="60" rx="16" fill="#5D36F6"/>
<g filter="url(#filter0_f_105_45)">
<path d="M30 47L66.3731 62H-6.37307L30 47Z" fill="white"/>
</g>
<path d="M28.3205 34.6749C29.9958 33.5596 31.2677 31.9347 31.9482 30.0406C32.6286 28.1465 32.6814 26.0837 32.0988 24.1572C31.5162 22.2308 30.3291 20.543 28.7131 19.3434C27.097 18.1438 25.1378 17.4961 23.1252 17.4961C21.1126 17.4961 19.1534 18.1438 17.5373 19.3434C15.9213 20.543 14.7342 22.2308 14.1516 24.1572C13.569 26.0837 13.6218 28.1465 14.3022 30.0406C14.9827 31.9347 16.2546 33.5596 17.9299 34.6749C14.8994 35.7918 12.3113 37.8587 10.5518 40.5671C10.4593 40.7045 10.3951 40.859 10.3628 41.0215C10.3305 41.184 10.3309 41.3512 10.3639 41.5136C10.3968 41.6759 10.4617 41.8301 10.5548 41.9671C10.6479 42.1042 10.7672 42.2214 10.906 42.3119C11.0447 42.4024 11.2001 42.4644 11.363 42.4943C11.526 42.5242 11.6932 42.5215 11.8551 42.4862C12.0169 42.4509 12.1702 42.3838 12.3059 42.2888C12.4416 42.1938 12.557 42.0727 12.6455 41.9327C13.7805 40.1871 15.3336 38.7526 17.1637 37.7595C18.9938 36.7665 21.043 36.2464 23.1252 36.2464C25.2074 36.2464 27.2566 36.7665 29.0867 37.7595C30.9168 38.7526 32.4699 40.1871 33.6049 41.9327C33.7882 42.2052 34.0714 42.3946 34.3933 42.4599C34.7151 42.5253 35.0498 42.4613 35.3249 42.2819C35.6 42.1025 35.7934 41.822 35.8633 41.5011C35.9333 41.1802 35.8741 40.8447 35.6986 40.5671C33.9391 37.8587 31.351 35.7918 28.3205 34.6749ZM16.2502 26.8749C16.2502 25.5152 16.6534 24.1859 17.4088 23.0554C18.1643 21.9248 19.238 21.0436 20.4943 20.5232C21.7505 20.0029 23.1328 19.8667 24.4664 20.132C25.8001 20.3973 27.0251 21.0521 27.9866 22.0135C28.948 22.975 29.6028 24.2 29.8681 25.5337C30.1334 26.8673 29.9972 28.2496 29.4769 29.5058C28.9565 30.7621 28.0753 31.8358 26.9447 32.5912C25.8142 33.3467 24.4849 33.7499 23.1252 33.7499C21.3025 33.7478 19.555 33.0228 18.2661 31.734C16.9773 30.4451 16.2523 28.6976 16.2502 26.8749ZM49.0846 42.2968C48.8069 42.4778 48.4687 42.5412 48.1443 42.4729C47.82 42.4046 47.536 42.2103 47.3549 41.9327C46.2213 40.186 44.6684 38.7509 42.8379 37.7583C41.0074 36.7657 38.9575 36.2471 36.8752 36.2499C36.5437 36.2499 36.2257 36.1182 35.9913 35.8838C35.7569 35.6494 35.6252 35.3314 35.6252 34.9999C35.6252 34.6684 35.7569 34.3504 35.9913 34.116C36.2257 33.8816 36.5437 33.7499 36.8752 33.7499C37.8877 33.7489 38.8874 33.5244 39.803 33.0923C40.7186 32.6601 41.5275 32.0311 42.1718 31.2502C42.8161 30.4692 43.28 29.5556 43.5303 28.5745C43.7806 27.5935 43.8111 26.5693 43.6197 25.5751C43.4283 24.5809 43.0197 23.6413 42.423 22.8233C41.8264 22.0054 41.0564 21.3293 40.1682 20.8434C39.2799 20.3575 38.2954 20.0738 37.2848 20.0125C36.2742 19.9512 35.2625 20.1139 34.3221 20.489C34.1687 20.5552 34.0037 20.5901 33.8366 20.5915C33.6696 20.5929 33.504 20.5609 33.3495 20.4972C33.1951 20.4335 33.055 20.3395 32.9375 20.2208C32.82 20.102 32.7275 19.9609 32.6655 19.8058C32.6034 19.6507 32.5731 19.4848 32.5763 19.3177C32.5795 19.1507 32.6161 18.986 32.684 18.8334C32.7519 18.6808 32.8497 18.5433 32.9717 18.4292C33.0936 18.315 33.2372 18.2264 33.394 18.1686C35.5462 17.3103 37.9401 17.2794 40.1139 18.0819C42.2876 18.8845 44.0871 20.4636 45.1652 22.5146C46.2433 24.5656 46.5237 26.9433 45.9522 29.1888C45.3808 31.4344 43.9979 33.3887 42.0705 34.6749C45.101 35.7918 47.6891 37.8587 49.4486 40.5671C49.6297 40.8447 49.6931 41.1829 49.6248 41.5073C49.5565 41.8317 49.3622 42.1157 49.0846 42.2968Z" fill="white"/>
</g>
<defs>
<filter id="filter0_f_105_45" x="-31.373" y="22" width="122.746" height="65" filterUnits="userSpaceOnUse" color-interpolation-filters="sRGB">
<feFlood flood-opacity="0" result="BackgroundImageFix"/>
<feBlend mode="normal" in="SourceGraphic" in2="BackgroundImageFix" result="shape"/>
<feGaussianBlur stdDeviation="12.5" result="effect1_foregroundBlur_105_45"/>
</filter>
<clipPath id="clip0_105_45">
<rect width="60" height="60" rx="16" fill="white"/>
</clipPath>
</defs>
</svg>
