<svg width="64" height="64" viewBox="0 0 64 64" fill="none" xmlns="http://www.w3.org/2000/svg">
<path d="M46.8948 36.21L38.8948 32.21C38.5799 32.0531 38.2292 31.982 37.878 32.0039C37.5269 32.0259 37.1877 32.1401 36.8948 32.335L33.2223 34.785C31.5364 33.8582 30.1491 32.4709 29.2223 30.785L31.6723 27.1125C31.8672 26.8196 31.9814 26.4804 32.0034 26.1293C32.0253 25.7781 31.9542 25.4274 31.7973 25.1125L27.7973 17.1125C27.6315 16.7777 27.3753 16.496 27.0576 16.2994C26.7399 16.1027 26.3734 15.999 25.9998 16C23.3477 16 20.8041 17.0536 18.9287 18.9289C17.0534 20.8043 15.9998 23.3478 15.9998 26C16.0064 31.8327 18.3264 37.4247 22.4508 41.549C26.5751 45.6734 32.1671 47.9934 37.9998 48C39.313 48 40.6134 47.7413 41.8267 47.2388C43.0399 46.7362 44.1423 45.9997 45.0709 45.0711C45.9995 44.1425 46.7361 43.0401 47.2386 41.8268C47.7412 40.6136 47.9998 39.3132 47.9998 38C48.0001 37.6284 47.8968 37.2642 47.7017 36.948C47.5065 36.6318 47.2271 36.3763 46.8948 36.21ZM37.9998 44C33.2275 43.9947 28.6522 42.0966 25.2777 38.7221C21.9032 35.3476 20.0051 30.7723 19.9998 26C19.9994 24.6128 20.4797 23.2683 21.359 22.1954C22.2382 21.1224 23.4621 20.3872 24.8223 20.115L27.6923 25.865L25.2498 29.5C25.0673 29.7738 24.9551 30.0884 24.9233 30.4159C24.8915 30.7434 24.9409 31.0737 25.0673 31.3775C26.4983 34.7785 29.2039 37.484 32.6048 38.915C32.9095 39.047 33.2424 39.101 33.5732 39.0722C33.904 39.0434 34.2225 38.9327 34.4998 38.75L38.1523 36.315L43.9023 39.185C43.628 40.5468 42.8896 41.7712 41.8132 42.6493C40.7367 43.5274 39.389 44.0048 37.9998 44ZM31.9998 6C27.511 5.99902 23.0984 7.16022 19.1914 9.37057C15.2845 11.5809 12.0164 14.7651 9.70525 18.6132C7.39406 22.4614 6.11852 26.8423 6.00279 31.3296C5.88705 35.817 6.93506 40.2579 9.04482 44.22L6.20732 52.7325C5.97228 53.4373 5.93817 54.1936 6.10881 54.9167C6.27945 55.6398 6.6481 56.301 7.17344 56.8264C7.69878 57.3517 8.36005 57.7204 9.08313 57.891C9.80621 58.0616 10.5625 58.0275 11.2673 57.7925L19.7798 54.955C23.2667 56.8096 27.1303 57.8455 31.0774 57.984C35.0244 58.1225 38.9511 57.36 42.5595 55.7543C46.1678 54.1487 49.363 51.7421 51.9023 48.7172C54.4417 45.6923 56.2586 42.1287 57.2151 38.2968C58.1716 34.4649 58.2426 30.4655 57.4226 26.6021C56.6027 22.7387 54.9134 19.1128 52.4829 15.9998C50.0524 12.8867 46.9447 10.3683 43.3956 8.63564C39.8465 6.90297 35.9493 6.00162 31.9998 6ZM31.9998 54C28.1323 54.0026 24.3326 52.9841 20.9848 51.0475C20.7397 50.9054 20.4672 50.8169 20.1853 50.788C19.9034 50.7592 19.6187 50.7905 19.3498 50.88L9.99982 54L13.1173 44.65C13.2072 44.3813 13.2389 44.0966 13.2105 43.8148C13.1821 43.5329 13.094 43.2603 12.9523 43.015C10.5272 38.8223 9.55359 33.9465 10.1824 29.1439C10.8112 24.3414 13.0073 19.8805 16.43 16.4535C19.8528 13.0264 24.3108 10.8247 29.1126 10.1898C33.9143 9.55494 38.7914 10.5224 42.9871 12.9422C47.1829 15.362 50.4629 19.0988 52.3182 23.5729C54.1735 28.047 54.5005 33.0083 53.2484 37.6872C51.9963 42.3661 49.2351 46.501 45.3932 49.4505C41.5513 52.4 36.8434 53.9992 31.9998 54Z" fill="white"/>
</svg>
