<svg width="48" height="48" viewBox="0 0 48 48" fill="none" xmlns="http://www.w3.org/2000/svg">
<path d="M38.5611 36.4386C38.7005 36.578 38.811 36.7434 38.8864 36.9255C38.9619 37.1076 39.0007 37.3028 39.0007 37.4999C39.0007 37.697 38.9619 37.8921 38.8864 38.0742C38.811 38.2563 38.7005 38.4217 38.5611 38.5611C38.4217 38.7005 38.2563 38.811 38.0742 38.8864C37.8921 38.9619 37.697 39.0007 37.4999 39.0007C37.3028 39.0007 37.1076 38.9619 36.9255 38.8864C36.7434 38.811 36.578 38.7005 36.4386 38.5611L23.9999 26.1205L11.5611 38.5611C11.2796 38.8426 10.8979 39.0007 10.4999 39.0007C10.1018 39.0007 9.72007 38.8426 9.43861 38.5611C9.15715 38.2796 8.99902 37.8979 8.99902 37.4999C8.99902 37.1018 9.15715 36.7201 9.43861 36.4386L21.8792 23.9999L9.43861 11.5611C9.15715 11.2796 8.99902 10.8979 8.99902 10.4999C8.99902 10.1018 9.15715 9.72007 9.43861 9.43861C9.72007 9.15715 10.1018 8.99902 10.4999 8.99902C10.8979 8.99902 11.2796 9.15715 11.5611 9.43861L23.9999 21.8792L36.4386 9.43861C36.7201 9.15715 37.1018 8.99902 37.4999 8.99902C37.8979 8.99902 38.2796 9.15715 38.5611 9.43861C38.8426 9.72007 39.0007 10.1018 39.0007 10.4999C39.0007 10.8979 38.8426 11.2796 38.5611 11.5611L26.1205 23.9999L38.5611 36.4386Z" fill="white"/>
</svg>
